<?xml version="1.0" encoding="UTF-8" standalone="no"?>
<svg
   xmlns:dc="http://purl.org/dc/elements/1.1/"
   xmlns:cc="http://creativecommons.org/ns#"
   xmlns:rdf="http://www.w3.org/1999/02/22-rdf-syntax-ns#"
   xmlns:svg="http://www.w3.org/2000/svg"
   xmlns="http://www.w3.org/2000/svg"
   xmlns:sodipodi="http://sodipodi.sourceforge.net/DTD/sodipodi-0.dtd"
   xmlns:inkscape="http://www.inkscape.org/namespaces/inkscape"
   width="32cm"
   height="12cm"
   viewBox="436 163 633 229"
   id="svg2"
   version="1.1"
   inkscape:version="0.91 r"
   sodipodi:docname="the-server.svg"
   inkscape:export-filename="/home/def/Desktop/the-robot.png"
   inkscape:export-xdpi="103"
   inkscape:export-ydpi="103">
  <metadata
     id="metadata164">
    <rdf:RDF>
      <cc:Work
         rdf:about="">
        <dc:format>image/svg+xml</dc:format>
        <dc:type
           rdf:resource="http://purl.org/dc/dcmitype/StillImage" />
        <dc:title></dc:title>
      </cc:Work>
    </rdf:RDF>
  </metadata>
  <defs
     id="defs162">
    <filter
       height="2.2537315"
       y="-0.62686568"
       width="2.1506848"
       x="-0.57534248"
       id="filter3843-4-9"
       inkscape:collect="always"
       style="color-interpolation-filters:sRGB">
      <feGaussianBlur
         id="feGaussianBlur3845-7-1"
         stdDeviation="9.8014798"
         inkscape:collect="always" />
    </filter>
  </defs>
  <sodipodi:namedview
     pagecolor="#ffffff"
     bordercolor="#666666"
     borderopacity="1"
     objecttolerance="10"
     gridtolerance="10"
     guidetolerance="10"
     inkscape:pageopacity="0"
     inkscape:pageshadow="2"
     inkscape:window-width="1920"
     inkscape:window-height="1023"
     id="namedview160"
     showgrid="false"
     inkscape:zoom="0.89903847"
     inkscape:cx="471.98282"
     inkscape:cy="313.49223"
     inkscape:window-x="0"
     inkscape:window-y="0"
     inkscape:window-maximized="1"
     inkscape:current-layer="svg2"
     showguides="true" />
  <rect
     id="rect12"
     ry="10"
     rx="10"
     height="36"
     width="80"
     y="298.48001"
     x="437.43399"
     style="fill:#ffffff" />
  <text
     font-size="12.8"
     style="fill: #000000;text-anchor:start;font-family:sans-serif;font-style:normal;font-weight:normal"
     x="762.122"
     y="264.67"
     id="text76">
    <tspan
       x="762.122"
       y="264.67"
       id="tspan78" />
  </text>
  <g
     id="g4154"
     transform="matrix(1.0730613,0,0,1.0981233,1747.5257,447.07357)">
    <rect
       transform="scale(-1,1)"
       style="opacity:0.01000001;fill:none;fill-opacity:1;stroke:#000000;stroke-opacity:1"
       id="rect4251"
       width="160"
       height="120"
       x="722.85712"
       y="-216.20923" />
    <g
       style="fill:none;fill-opacity:1;stroke:#000000;stroke-opacity:1"
       id="g4253"
       transform="matrix(-1.2705064,0,0,1.172859,-724.91856,-214.53671)" />
  </g>
  <rect
     style="fill:#9ae1fa;fill-opacity:1;fill-rule:nonzero;stroke:#000000;stroke-width:2.23308325;stroke-linejoin:miter;stroke-miterlimit:4;stroke-dasharray:none;stroke-dashoffset:0;stroke-opacity:1"
     id="rect4684"
     width="174.96227"
     height="133.71309"
     x="796.15491"
     y="199.40698"
     rx="15.45221"
     ry="17.882307" />
  <g
     id="g4188"
     transform="matrix(0.5514585,0,0,0.56433814,1324.5133,344.19911)">
    <path
       sodipodi:type="inkscape:offset"
       inkscape:radius="6.8694949"
       inkscape:original="M 47.15625 6.40625 C 34.017587 6.3712955 22.209992 17.453777 22.03125 30.71875 C 21.193418 33.666955 23.97327 38.428594 19.75 38.75 C 4.4434503 45.31449 1.7644115 69.944063 16.59375 78.46875 C 25.785956 84.360338 37.291062 80.494675 47.53125 81.59375 C 64.680596 81.273543 82.048595 82.220831 99.0625 81.125 C 110.28493 77.715605 118.54566 65.434894 114.84375 53.71875 C 112.94303 46.574264 107.52414 39.811444 100.0625 38.1875 C 102.11814 26.019367 89.936554 13.999966 77.8125 17.5625 C 75.007489 17.650288 72.102939 22.257123 71.0625 18.03125 C 66.067737 10.018031 56.389623 6.005843 47.15625 6.40625 z "
       style="fill:#ffffff;fill-opacity:1;stroke:#000000;stroke-width:5.17013979;stroke-miterlimit:4;stroke-dasharray:none;stroke-opacity:1"
       id="path4255"
       d="m 47.080078,-0.453125 c -16.617105,0.00667 -30.977423,13.276901 -31.792969,30.027344 -0.379636,1.6319 -0.472033,2.976328 -0.396484,3.986328 C -3.8129873,43.64501 -6.1666072,73.103876 13.005859,84.3125 c 6.234577,3.94845 12.999309,4.4857 18.783203,4.384766 5.820242,-0.101569 11.010779,-0.702647 15.009766,-0.273438 a 6.8701819,6.8701819 0 0 0 0.861328,0.03906 c 16.809954,-0.31387 34.277199,0.649004 51.84375,-0.482422 a 6.8701819,6.8701819 0 0 0 1.554684,-0.283203 c 14.66488,-4.455218 25.2455,-20.111025 20.36719,-35.886719 -2.02417,-7.465205 -6.94035,-14.64082 -14.39062,-18.328125 C 105.89375,18.628761 91.220936,6.4614508 75.875,10.970703 l 1.722656,-0.273437 c -1.217859,0.03811 -2.227467,0.216381 -3.09375,0.451172 C 67.707108,2.962823 57.177707,-0.83036158 47.080078,-0.453125 Z"
       transform="matrix(-1.2286964,0,0,1.1342624,-727.70546,-212.16118)" />
    <g
       transform="matrix(-0.27387402,0,0,0.27387402,-729.45921,-193.49784)"
       id="g4295">
      <path
         style="fill:none;stroke:#000000;stroke-width:10.95394135;stroke-linecap:round;stroke-linejoin:miter;stroke-miterlimit:4;stroke-dasharray:none;stroke-opacity:1"
         d="m 285.08305,161.73006 c 10.03588,25.46628 57.3716,26.47501 70.01057,-1.12017"
         id="path4297"
         inkscape:connector-curvature="0"
         sodipodi:nodetypes="cc" />
      <g
         id="g4299">
        <ellipse
           transform="matrix(2.0958904,0,0,2.0958904,-229.55796,-67.369779)"
           id="path4301"
           style="fill:#000000;fill-opacity:1;stroke:none"
           cx="229.91472"
           cy="80.237755"
           rx="20.443087"
           ry="18.762833" />
        <ellipse
           style="fill:#ffffff;fill-opacity:1;stroke:none"
           id="path4303"
           transform="matrix(0.91065216,0,0,0.91065216,57.361665,16.694341)"
           cx="229.91472"
           cy="80.237755"
           rx="20.443087"
           ry="18.762833" />
        <ellipse
           transform="matrix(0.48395004,0,0,0.48395004,136.66213,77.651065)"
           id="path4305"
           style="fill:#ffffff;fill-opacity:1;stroke:none"
           cx="229.91472"
           cy="80.237755"
           rx="20.443087"
           ry="18.762833" />
        <ellipse
           inkscape:transform-center-y="17.922707"
           inkscape:transform-center-x="-17.362622"
           style="opacity:0.5;fill:#ffffff;fill-opacity:1;stroke:none;filter:url(#filter3843-4-9)"
           id="path4307"
           transform="matrix(0.48395004,0,0,0.48395004,120.97977,51.32709)"
           cx="229.91472"
           cy="80.237755"
           rx="20.443087"
           ry="18.762833" />
      </g>
      <g
         id="g4309"
         transform="translate(141.7014,0)">
        <ellipse
           style="fill:#000000;fill-opacity:1;stroke:none"
           id="path4311"
           transform="matrix(2.0958904,0,0,2.0958904,-229.55796,-67.369779)"
           cx="229.91472"
           cy="80.237755"
           rx="20.443087"
           ry="18.762833" />
        <ellipse
           transform="matrix(0.91065216,0,0,0.91065216,57.361665,16.694341)"
           id="path4313"
           style="fill:#ffffff;fill-opacity:1;stroke:none"
           cx="229.91472"
           cy="80.237755"
           rx="20.443087"
           ry="18.762833" />
        <ellipse
           style="fill:#ffffff;fill-opacity:1;stroke:none"
           id="path4315"
           transform="matrix(0.48395004,0,0,0.48395004,136.66213,77.651065)"
           cx="229.91472"
           cy="80.237755"
           rx="20.443087"
           ry="18.762833" />
        <ellipse
           transform="matrix(0.48395004,0,0,0.48395004,120.97977,51.32709)"
           id="path4317"
           style="opacity:0.5;fill:#ffffff;fill-opacity:1;stroke:none;filter:url(#filter3843-4-9)"
           inkscape:transform-center-x="-17.362622"
           inkscape:transform-center-y="17.922707"
           cx="229.91472"
           cy="80.237755"
           rx="20.443087"
           ry="18.762833" />
      </g>
    </g>
  </g>
  <text
     font-size="12.8014"
     style="font-style:normal;font-weight:normal;font-size:12.80139828px;font-family:sans-serif;text-anchor:start;fill:#000000"
     x="846.84436"
     y="317.18918"
     id="text164">
    <tspan
       x="846.84436"
       y="317.18918"
       id="tspan166">The Server</tspan>
  </text>
</svg>
